<mxfile host="app.diagrams.net" agent="Mozilla/5.0 (Windows NT 10.0; Win64; x64) AppleWebKit/537.36 (KHTML, like Gecko) Chrome/139.0.0.0 Safari/537.36" version="28.1.0">
  <diagram name="Page-1" id="fb245K60vPVSkVotKrJi">
    <mxGraphModel dx="786" dy="451" grid="1" gridSize="10" guides="1" tooltips="1" connect="1" arrows="1" fold="1" page="1" pageScale="1" pageWidth="827" pageHeight="1169" math="0" shadow="0">
      <root>
        <mxCell id="0" />
        <mxCell id="1" parent="0" />
        <mxCell id="1nkeRKx5x595rjufG5Mj-3" value="" style="edgeStyle=orthogonalEdgeStyle;rounded=0;orthogonalLoop=1;jettySize=auto;html=1;" parent="1" source="1nkeRKx5x595rjufG5Mj-1" target="1nkeRKx5x595rjufG5Mj-2" edge="1">
          <mxGeometry relative="1" as="geometry" />
        </mxCell>
        <mxCell id="1nkeRKx5x595rjufG5Mj-1" value="&lt;font dir=&quot;auto&quot; style=&quot;vertical-align: inherit;&quot;&gt;&lt;font dir=&quot;auto&quot; style=&quot;vertical-align: inherit;&quot;&gt;Utilisateur arrive sur EcoRide&lt;/font&gt;&lt;/font&gt;" style="ellipse;whiteSpace=wrap;html=1;fillColor=#e1d5e7;strokeColor=#9673a6;fontFamily=Verdana;" parent="1" vertex="1">
          <mxGeometry x="340" y="20" width="120" height="80" as="geometry" />
        </mxCell>
        <mxCell id="1nkeRKx5x595rjufG5Mj-5" value="" style="edgeStyle=orthogonalEdgeStyle;rounded=0;orthogonalLoop=1;jettySize=auto;html=1;" parent="1" source="1nkeRKx5x595rjufG5Mj-2" target="1nkeRKx5x595rjufG5Mj-4" edge="1">
          <mxGeometry relative="1" as="geometry" />
        </mxCell>
        <mxCell id="1nkeRKx5x595rjufG5Mj-2" value="&lt;font dir=&quot;auto&quot; style=&quot;vertical-align: inherit;&quot;&gt;&lt;font dir=&quot;auto&quot; style=&quot;vertical-align: inherit;&quot;&gt;Accueil&lt;/font&gt;&lt;/font&gt;" style="rounded=0;whiteSpace=wrap;html=1;fillColor=#d5e8d4;strokeColor=#82b366;fontFamily=Comic Sans MS;" parent="1" vertex="1">
          <mxGeometry x="340" y="140" width="120" height="60" as="geometry" />
        </mxCell>
        <mxCell id="1nkeRKx5x595rjufG5Mj-7" value="" style="edgeStyle=orthogonalEdgeStyle;rounded=0;orthogonalLoop=1;jettySize=auto;html=1;" parent="1" source="1nkeRKx5x595rjufG5Mj-4" edge="1">
          <mxGeometry relative="1" as="geometry">
            <mxPoint x="400" y="360" as="targetPoint" />
          </mxGeometry>
        </mxCell>
        <mxCell id="1nkeRKx5x595rjufG5Mj-8" value="&lt;font style=&quot;vertical-align: inherit;&quot; dir=&quot;auto&quot;&gt;&lt;font style=&quot;vertical-align: inherit;&quot; dir=&quot;auto&quot;&gt;OUI&lt;/font&gt;&lt;/font&gt;" style="edgeLabel;html=1;align=center;verticalAlign=middle;resizable=0;points=[];" parent="1nkeRKx5x595rjufG5Mj-7" vertex="1" connectable="0">
          <mxGeometry x="-0.4917" y="-3" relative="1" as="geometry">
            <mxPoint as="offset" />
          </mxGeometry>
        </mxCell>
        <mxCell id="1nkeRKx5x595rjufG5Mj-10" value="" style="edgeStyle=orthogonalEdgeStyle;rounded=0;orthogonalLoop=1;jettySize=auto;html=1;" parent="1" source="1nkeRKx5x595rjufG5Mj-4" target="1nkeRKx5x595rjufG5Mj-9" edge="1">
          <mxGeometry relative="1" as="geometry">
            <Array as="points">
              <mxPoint x="690" y="290" />
            </Array>
          </mxGeometry>
        </mxCell>
        <mxCell id="1nkeRKx5x595rjufG5Mj-11" value="&lt;font style=&quot;vertical-align: inherit;&quot; dir=&quot;auto&quot;&gt;&lt;font style=&quot;vertical-align: inherit;&quot; dir=&quot;auto&quot;&gt;NON&lt;/font&gt;&lt;/font&gt;" style="edgeLabel;html=1;align=center;verticalAlign=middle;resizable=0;points=[];" parent="1nkeRKx5x595rjufG5Mj-10" vertex="1" connectable="0">
          <mxGeometry x="-0.075" relative="1" as="geometry">
            <mxPoint as="offset" />
          </mxGeometry>
        </mxCell>
        <mxCell id="1nkeRKx5x595rjufG5Mj-44" value="" style="edgeStyle=orthogonalEdgeStyle;rounded=0;orthogonalLoop=1;jettySize=auto;html=1;" parent="1" source="1nkeRKx5x595rjufG5Mj-4" target="1nkeRKx5x595rjufG5Mj-43" edge="1">
          <mxGeometry relative="1" as="geometry">
            <Array as="points">
              <mxPoint x="305" y="270" />
              <mxPoint x="305" y="230" />
            </Array>
          </mxGeometry>
        </mxCell>
        <mxCell id="1nkeRKx5x595rjufG5Mj-45" value="OUI" style="edgeLabel;html=1;align=center;verticalAlign=middle;resizable=0;points=[];" parent="1nkeRKx5x595rjufG5Mj-44" vertex="1" connectable="0">
          <mxGeometry x="-0.025" y="1" relative="1" as="geometry">
            <mxPoint as="offset" />
          </mxGeometry>
        </mxCell>
        <mxCell id="1nkeRKx5x595rjufG5Mj-48" value="" style="edgeStyle=orthogonalEdgeStyle;rounded=0;orthogonalLoop=1;jettySize=auto;html=1;" parent="1" source="1nkeRKx5x595rjufG5Mj-4" target="1nkeRKx5x595rjufG5Mj-47" edge="1">
          <mxGeometry relative="1" as="geometry" />
        </mxCell>
        <mxCell id="1nkeRKx5x595rjufG5Mj-49" value="OUI" style="edgeLabel;html=1;align=center;verticalAlign=middle;resizable=0;points=[];" parent="1nkeRKx5x595rjufG5Mj-48" vertex="1" connectable="0">
          <mxGeometry x="-0.0121" y="1" relative="1" as="geometry">
            <mxPoint as="offset" />
          </mxGeometry>
        </mxCell>
        <mxCell id="1nkeRKx5x595rjufG5Mj-4" value="&lt;font dir=&quot;auto&quot; style=&quot;vertical-align: inherit;&quot;&gt;&lt;font dir=&quot;auto&quot; style=&quot;vertical-align: inherit;&quot;&gt;&lt;font dir=&quot;auto&quot; style=&quot;vertical-align: inherit;&quot;&gt;&lt;font dir=&quot;auto&quot; style=&quot;vertical-align: inherit;&quot;&gt;Connexion&amp;nbsp;&lt;/font&gt;&lt;/font&gt;&lt;/font&gt;&lt;/font&gt;" style="rounded=0;whiteSpace=wrap;html=1;fillColor=#d5e8d4;strokeColor=#82b366;fontFamily=Comic Sans MS;" parent="1" vertex="1">
          <mxGeometry x="340" y="240" width="120" height="60" as="geometry" />
        </mxCell>
        <mxCell id="1nkeRKx5x595rjufG5Mj-17" value="" style="edgeStyle=orthogonalEdgeStyle;rounded=0;orthogonalLoop=1;jettySize=auto;html=1;" parent="1" edge="1">
          <mxGeometry relative="1" as="geometry">
            <mxPoint x="630" y="260.0000000000001" as="sourcePoint" />
            <mxPoint x="460" y="250" as="targetPoint" />
            <Array as="points">
              <mxPoint x="630" y="250" />
            </Array>
          </mxGeometry>
        </mxCell>
        <mxCell id="1nkeRKx5x595rjufG5Mj-9" value="&lt;font dir=&quot;auto&quot; style=&quot;vertical-align: inherit;&quot;&gt;&lt;font dir=&quot;auto&quot; style=&quot;vertical-align: inherit;&quot;&gt;&lt;font dir=&quot;auto&quot; style=&quot;vertical-align: inherit;&quot;&gt;&lt;font dir=&quot;auto&quot; style=&quot;vertical-align: inherit;&quot;&gt;S&#39;identifier ou créer un compte&lt;/font&gt;&lt;/font&gt;&lt;/font&gt;&lt;/font&gt;" style="rounded=0;whiteSpace=wrap;html=1;fillColor=#d5e8d4;strokeColor=#82b366;fontFamily=Comic Sans MS;" parent="1" vertex="1">
          <mxGeometry x="630" y="210" width="120" height="60" as="geometry" />
        </mxCell>
        <mxCell id="1nkeRKx5x595rjufG5Mj-14" value="" style="edgeStyle=orthogonalEdgeStyle;rounded=0;orthogonalLoop=1;jettySize=auto;html=1;" parent="1" source="1nkeRKx5x595rjufG5Mj-12" target="1nkeRKx5x595rjufG5Mj-13" edge="1">
          <mxGeometry relative="1" as="geometry" />
        </mxCell>
        <mxCell id="1nkeRKx5x595rjufG5Mj-12" value="&lt;font dir=&quot;auto&quot; style=&quot;vertical-align: inherit;&quot;&gt;&lt;font dir=&quot;auto&quot; style=&quot;vertical-align: inherit;&quot;&gt;Recherche de trajet&lt;/font&gt;&lt;/font&gt;" style="rounded=0;whiteSpace=wrap;html=1;fillColor=#d5e8d4;strokeColor=#82b366;fontFamily=Comic Sans MS;" parent="1" vertex="1">
          <mxGeometry x="340" y="360" width="120" height="60" as="geometry" />
        </mxCell>
        <mxCell id="1nkeRKx5x595rjufG5Mj-24" value="" style="edgeStyle=orthogonalEdgeStyle;rounded=0;orthogonalLoop=1;jettySize=auto;html=1;" parent="1" source="1nkeRKx5x595rjufG5Mj-13" target="1nkeRKx5x595rjufG5Mj-19" edge="1">
          <mxGeometry relative="1" as="geometry" />
        </mxCell>
        <mxCell id="1nkeRKx5x595rjufG5Mj-13" value="&lt;font dir=&quot;auto&quot; style=&quot;vertical-align: inherit;&quot;&gt;&lt;font dir=&quot;auto&quot; style=&quot;vertical-align: inherit;&quot;&gt;&lt;font dir=&quot;auto&quot; style=&quot;vertical-align: inherit;&quot;&gt;&lt;font dir=&quot;auto&quot; style=&quot;vertical-align: inherit;&quot;&gt;Saisir départ/arrivée, date&lt;/font&gt;&lt;/font&gt;&lt;/font&gt;&lt;/font&gt;" style="rounded=0;whiteSpace=wrap;html=1;fillColor=#d5e8d4;strokeColor=#82b366;fontFamily=Comic Sans MS;" parent="1" vertex="1">
          <mxGeometry x="340" y="440" width="120" height="60" as="geometry" />
        </mxCell>
        <mxCell id="1nkeRKx5x595rjufG5Mj-26" value="" style="edgeStyle=orthogonalEdgeStyle;rounded=0;orthogonalLoop=1;jettySize=auto;html=1;" parent="1" source="1nkeRKx5x595rjufG5Mj-19" target="1nkeRKx5x595rjufG5Mj-25" edge="1">
          <mxGeometry relative="1" as="geometry" />
        </mxCell>
        <mxCell id="1nkeRKx5x595rjufG5Mj-19" value="Afficher trajet disponibles" style="rounded=0;whiteSpace=wrap;html=1;fillColor=#d5e8d4;strokeColor=#82b366;fontFamily=Comic Sans MS;" parent="1" vertex="1">
          <mxGeometry x="340" y="540" width="120" height="60" as="geometry" />
        </mxCell>
        <mxCell id="1nkeRKx5x595rjufG5Mj-28" value="" style="edgeStyle=orthogonalEdgeStyle;rounded=0;orthogonalLoop=1;jettySize=auto;html=1;" parent="1" source="1nkeRKx5x595rjufG5Mj-25" target="1nkeRKx5x595rjufG5Mj-27" edge="1">
          <mxGeometry relative="1" as="geometry" />
        </mxCell>
        <mxCell id="1nkeRKx5x595rjufG5Mj-25" value="Sélectionner un trajet&amp;nbsp;" style="rounded=0;whiteSpace=wrap;html=1;fillColor=#d5e8d4;strokeColor=#82b366;fontFamily=Comic Sans MS;" parent="1" vertex="1">
          <mxGeometry x="340" y="630" width="120" height="60" as="geometry" />
        </mxCell>
        <mxCell id="1nkeRKx5x595rjufG5Mj-30" value="" style="edgeStyle=orthogonalEdgeStyle;rounded=0;orthogonalLoop=1;jettySize=auto;html=1;" parent="1" source="1nkeRKx5x595rjufG5Mj-27" target="1nkeRKx5x595rjufG5Mj-29" edge="1">
          <mxGeometry relative="1" as="geometry" />
        </mxCell>
        <mxCell id="1nkeRKx5x595rjufG5Mj-27" value="Afficher détails conducteur + trajet" style="rounded=0;whiteSpace=wrap;html=1;fillColor=#d5e8d4;strokeColor=#82b366;fontFamily=Comic Sans MS;" parent="1" vertex="1">
          <mxGeometry x="340" y="720" width="120" height="60" as="geometry" />
        </mxCell>
        <mxCell id="1nkeRKx5x595rjufG5Mj-32" value="" style="edgeStyle=orthogonalEdgeStyle;rounded=0;orthogonalLoop=1;jettySize=auto;html=1;" parent="1" source="1nkeRKx5x595rjufG5Mj-29" target="1nkeRKx5x595rjufG5Mj-31" edge="1">
          <mxGeometry relative="1" as="geometry" />
        </mxCell>
        <mxCell id="1nkeRKx5x595rjufG5Mj-33" value="NON" style="edgeLabel;html=1;align=center;verticalAlign=middle;resizable=0;points=[];" parent="1nkeRKx5x595rjufG5Mj-32" vertex="1" connectable="0">
          <mxGeometry x="0.0167" y="-2" relative="1" as="geometry">
            <mxPoint as="offset" />
          </mxGeometry>
        </mxCell>
        <mxCell id="1nkeRKx5x595rjufG5Mj-37" value="" style="edgeStyle=orthogonalEdgeStyle;rounded=0;orthogonalLoop=1;jettySize=auto;html=1;" parent="1" source="1nkeRKx5x595rjufG5Mj-29" target="1nkeRKx5x595rjufG5Mj-36" edge="1">
          <mxGeometry relative="1" as="geometry" />
        </mxCell>
        <mxCell id="1nkeRKx5x595rjufG5Mj-38" value="OUI" style="edgeLabel;html=1;align=center;verticalAlign=middle;resizable=0;points=[];" parent="1nkeRKx5x595rjufG5Mj-37" vertex="1" connectable="0">
          <mxGeometry x="-0.1" y="1" relative="1" as="geometry">
            <mxPoint as="offset" />
          </mxGeometry>
        </mxCell>
        <mxCell id="1nkeRKx5x595rjufG5Mj-29" value="Réserver ce trajet&amp;nbsp;" style="rhombus;whiteSpace=wrap;html=1;fillColor=#f8cecc;strokeColor=#b85450;fontFamily=Tahoma;" parent="1" vertex="1">
          <mxGeometry x="300" y="820" width="200" height="80" as="geometry" />
        </mxCell>
        <mxCell id="1nkeRKx5x595rjufG5Mj-35" style="edgeStyle=orthogonalEdgeStyle;rounded=0;orthogonalLoop=1;jettySize=auto;html=1;exitX=0.5;exitY=0;exitDx=0;exitDy=0;entryX=1;entryY=0.5;entryDx=0;entryDy=0;" parent="1" source="1nkeRKx5x595rjufG5Mj-31" target="1nkeRKx5x595rjufG5Mj-19" edge="1">
          <mxGeometry relative="1" as="geometry" />
        </mxCell>
        <mxCell id="1nkeRKx5x595rjufG5Mj-31" value="Retour aux résultats" style="whiteSpace=wrap;html=1;fillColor=#d5e8d4;strokeColor=#82b366;fontFamily=Comic Sans MS;" parent="1" vertex="1">
          <mxGeometry x="620" y="830" width="120" height="60" as="geometry" />
        </mxCell>
        <mxCell id="1nkeRKx5x595rjufG5Mj-36" value="Confirmer réservation" style="rounded=0;whiteSpace=wrap;html=1;fillColor=#d5e8d4;strokeColor=#82b366;fontFamily=Comic Sans MS;" parent="1" vertex="1">
          <mxGeometry x="340" y="940" width="120" height="60" as="geometry" />
        </mxCell>
        <mxCell id="1nkeRKx5x595rjufG5Mj-39" value="Fin du parcours avec envoi de mail/message à l&#39;utilisateur" style="ellipse;whiteSpace=wrap;html=1;fillColor=#e1d5e7;strokeColor=#9673a6;fontFamily=Verdana;" parent="1" vertex="1">
          <mxGeometry x="510" y="1040" width="200" height="80" as="geometry" />
        </mxCell>
        <mxCell id="1nkeRKx5x595rjufG5Mj-40" style="edgeStyle=orthogonalEdgeStyle;rounded=0;orthogonalLoop=1;jettySize=auto;html=1;entryX=0;entryY=0.625;entryDx=0;entryDy=0;entryPerimeter=0;" parent="1" source="1nkeRKx5x595rjufG5Mj-36" target="1nkeRKx5x595rjufG5Mj-39" edge="1">
          <mxGeometry relative="1" as="geometry">
            <Array as="points">
              <mxPoint x="400" y="1090" />
            </Array>
          </mxGeometry>
        </mxCell>
        <mxCell id="1nkeRKx5x595rjufG5Mj-43" value="&lt;font dir=&quot;auto&quot; style=&quot;vertical-align: inherit;&quot;&gt;&lt;font dir=&quot;auto&quot; style=&quot;vertical-align: inherit;&quot;&gt;&lt;font dir=&quot;auto&quot; style=&quot;vertical-align: inherit;&quot;&gt;&lt;font dir=&quot;auto&quot; style=&quot;vertical-align: inherit;&quot;&gt;Modifier profil&lt;/font&gt;&lt;/font&gt;&lt;/font&gt;&lt;/font&gt;" style="rounded=0;whiteSpace=wrap;html=1;fillColor=#d5e8d4;strokeColor=#82b366;fontFamily=Comic Sans MS;" parent="1" vertex="1">
          <mxGeometry x="150" y="200" width="120" height="60" as="geometry" />
        </mxCell>
        <mxCell id="1nkeRKx5x595rjufG5Mj-47" value="&lt;font dir=&quot;auto&quot; style=&quot;vertical-align: inherit;&quot;&gt;&lt;font dir=&quot;auto&quot; style=&quot;vertical-align: inherit;&quot;&gt;&lt;font dir=&quot;auto&quot; style=&quot;vertical-align: inherit;&quot;&gt;&lt;font dir=&quot;auto&quot; style=&quot;vertical-align: inherit;&quot;&gt;Ajouter un trajet&lt;/font&gt;&lt;/font&gt;&lt;/font&gt;&lt;/font&gt;" style="rounded=0;whiteSpace=wrap;html=1;fillColor=#d5e8d4;strokeColor=#82b366;fontFamily=Comic Sans MS;" parent="1" vertex="1">
          <mxGeometry x="150" y="280" width="120" height="60" as="geometry" />
        </mxCell>
        <mxCell id="kDPJA2dit4Iy70rk-iQf-2" value="&lt;font dir=&quot;auto&quot; style=&quot;vertical-align: inherit;&quot;&gt;&lt;font dir=&quot;auto&quot; style=&quot;vertical-align: inherit;&quot;&gt;&lt;font dir=&quot;auto&quot; style=&quot;vertical-align: inherit;&quot;&gt;&lt;font dir=&quot;auto&quot; style=&quot;vertical-align: inherit;&quot;&gt;Organigramme EcoRide - Parcours utilisateur et conducteur&lt;/font&gt;&lt;/font&gt;&lt;/font&gt;&lt;/font&gt;" style="text;html=1;align=center;verticalAlign=middle;whiteSpace=wrap;rounded=0;fontFamily=Verdana;fontSize=15;fontStyle=1" vertex="1" parent="1">
          <mxGeometry y="10" width="320" height="50" as="geometry" />
        </mxCell>
      </root>
    </mxGraphModel>
  </diagram>
</mxfile>
